# xmcd
#
# Track frame offsets:
# 150
# 11511
# 26965
# 42779
# 62915
# 80483
# 97259
# 115397
# 132628
# 150374
# 167079
# 180752
# 195298
# 212623
# 228903
# 247836
#
# Disc length: 3584 seconds
#
#
# Revision: 0
# Processed by: cddbd v1.5.1PL2 Copyright (c) Steve Scherf et al.
# Submitted via: FreeRIP 2.945 
#
DISCID=c90dfe10
DTITLE=Dashah - Rap Burglar
DYEAR=1900
DGENRE=Hip-Hop
TTITLE0=intro
TTITLE1=xtra xtra
TTITLE2=just anotther day
TTITLE3=faith
TTITLE4=thats what im about
TTITLE5=i dont give a
TTITLE6=inkaholik
TTITLE7=streetz iz talkin
TTITLE8=for the love
TTITLE9=go getter
TTITLE10=i believe
TTITLE11=set me free
TTITLE12=inkaholik part2
TTITLE13=writings on the wall(Sharvon)
TTITLE14=we need
TTITLE15=survive(ChrisWarrior)
EXTD=
EXTT0=
EXTT1=
EXTT2=
EXTT3=
EXTT4=
EXTT5=
EXTT6=
EXTT7=
EXTT8=
EXTT9=
EXTT10=
EXTT11=
EXTT12=
EXTT13=
EXTT14=
EXTT15=
PLAYORDER=
